<?xml version="1.0" encoding="UTF-8"?>
<svg version="1.1" xmlns="http://www.w3.org/2000/svg" width="1254" height="1254">
<path d="M0 0 C413.82 0 827.64 0 1254 0 C1254 413.82 1254 827.64 1254 1254 C840.18 1254 426.36 1254 0 1254 C0 840.18 0 426.36 0 0 Z " fill="#FBF6F2" transform="translate(0,0)"/>
<path d="M0 0 C49.5 0 99 0 150 0 C149.67 1.32 149.34 2.64 149 4 C147.96101562 4.08636719 146.92203125 4.17273438 145.8515625 4.26171875 C133.68676035 5.39774494 133.68676035 5.39774494 123 11 C120.25593881 14.63819349 119.58942802 17.28892934 119.625 21.8125 C119.61726563 22.78832031 119.60953125 23.76414062 119.6015625 24.76953125 C121.6230732 41.15962294 133.95454402 57.47583272 141.85144043 71.7013092 C142.19952759 72.32839279 142.54761475 72.95547638 142.90625 73.6015625 C143.25401489 74.22804184 143.60177979 74.85452118 143.96008301 75.49998474 C147.24909529 81.43330459 150.47239866 87.40134763 153.6875 93.375 C157.88198894 101.16172209 162.17987786 108.88021271 166.5625 116.5625 C171.425495 125.09566618 176.05020791 133.72756954 180.55541992 142.4543457 C183.90657317 148.937202 187.35540906 155.35719056 190.875 161.75 C197.26166548 173.3688224 203.3319237 185.14626204 209.41162109 196.92773438 C211.57166563 201.10572398 213.7480783 205.274839 215.9375 209.4375 C216.31455078 210.15502441 216.69160156 210.87254883 217.08007812 211.61181641 C219.67407622 216.5304031 222.30661019 221.42771174 224.94921875 226.3203125 C225.64532535 227.61137625 226.34137009 228.90247336 227.03735352 230.19360352 C228.41197109 232.74358909 229.79221743 235.29042015 231.17553711 237.83569336 C231.80081299 238.99464111 232.42608887 240.15358887 233.0703125 241.34765625 C233.63508301 242.38929932 234.19985352 243.43094238 234.78173828 244.50415039 C236 247 236 247 236 249 C236.66 249 237.32 249 238 249 C238.26482178 248.29149902 238.52964355 247.58299805 238.80249023 246.85302734 C240.05766118 243.86262416 241.53442366 241.15728867 243.16015625 238.3515625 C243.78422363 237.27165039 244.40829102 236.19173828 245.05126953 235.07910156 C245.71497559 233.93924805 246.37868164 232.79939453 247.0625 231.625 C247.7512877 230.43726051 248.43992618 229.24943448 249.12841797 228.06152344 C253.26745437 220.92991669 257.4571564 213.8315291 261.7265625 206.77734375 C263.97611166 203.05461177 266.18049266 199.30587935 268.38549805 195.55664062 C275.72259368 183.08590799 283.19773929 170.70124482 290.73783875 158.35256958 C292.91083821 154.79238014 295.07303362 151.22591772 297.22711182 147.6542511 C311.05694286 124.73734115 324.44189683 104.26080146 348.9375 91.8125 C349.56938232 91.49128174 350.20126465 91.17006348 350.85229492 90.83911133 C359.97889375 86.36088548 369.38812619 83.4250806 379.3125 81.3125 C380.70758789 80.99442383 380.70758789 80.99442383 382.13085938 80.66992188 C394.55840937 77.97714447 407.13932266 77.8513344 419.80810547 77.88647461 C421.22887164 77.88675759 422.64963796 77.88659659 424.07040405 77.8860321 C427.8793841 77.88574845 431.68833182 77.89157453 435.49730444 77.89860606 C439.49577 77.90491229 443.49423653 77.90544909 447.4927063 77.90663147 C455.04293133 77.90972355 462.59314166 77.91790796 470.14336026 77.92798096 C480.36112821 77.94131316 490.57890026 77.94665917 500.79667473 77.95248318 C516.8644608 77.96184957 532.93221587 77.98178256 549 78 C549 110.67 549 143.34 549 177 C547.35 176.67 545.7 176.34 544 176 C543.92523437 174.97003906 543.85046875 173.94007813 543.7734375 172.87890625 C541.88549356 151.03417763 533.55897646 133.55897646 518 118 C517.37738281 117.37738281 516.75476563 116.75476563 516.11328125 116.11328125 C502.34782219 103.27129114 482.34120758 94.2711996 464.01611328 90.43701172 C461.85894028 89.96942396 459.72881923 89.42341451 457.58984375 88.87890625 C444.99326581 85.91915792 432.43980017 85.5454808 419.5625 85.4375 C418.7074588 85.4228772 417.8524176 85.40825439 416.97146606 85.39318848 C395.06415637 85.0769588 378.81396635 92.06084598 362.8515625 107.19140625 C361.90073917 108.12729694 360.95023583 109.0635128 360 110 C359.16795044 110.79156494 359.16795044 110.79156494 358.3190918 111.59912109 C353.87370217 115.89659703 350.17486269 120.49062326 346.5625 125.5 C345.66362061 126.73496216 345.66362061 126.73496216 344.74658203 127.99487305 C331.55527038 146.20487762 319.01487804 164.84872422 306.59205627 183.58676147 C304.19939023 187.19552746 301.80014087 190.7997871 299.39527893 194.4004364 C290.33492321 207.96793412 281.39006027 221.61174517 272.43762207 235.25057983 C269.54801626 239.65094915 266.6470755 244.04326637 263.73046875 248.42578125 C262.61195592 250.11717213 261.4934635 251.8085765 260.375 253.5 C259.91053467 254.18924561 259.44606934 254.87849121 258.9675293 255.58862305 C258.10385766 256.90147428 257.26907761 258.23390449 256.46792603 259.58581543 C255 262 255 262 253.23661804 264.42781067 C245.64377006 276.51999459 247.06061339 290.3376263 247.2243793 304.11576629 C247.26111823 307.79940041 247.25895602 311.48303672 247.26173401 315.16682434 C247.27182562 321.34579281 247.30783118 327.52414895 247.36206055 333.70288086 C247.43130477 341.60452085 247.45899543 349.50572484 247.47305202 357.40763378 C247.48538434 364.24352324 247.51509284 371.07932128 247.5484364 377.91513658 C247.55853576 380.09296414 247.56663122 382.27079304 247.57458305 384.44862938 C247.59095954 388.52344477 247.6253159 392.5979231 247.66186523 396.67260742 C247.665672 397.86406372 247.66947876 399.05552002 247.67340088 400.28308105 C247.80845953 412.06563993 249.03445823 424.13586873 256.125 433.9375 C260.14014121 436.81792739 264.2493527 437.81971496 269 439 C270.3765233 439.39050306 271.75176734 439.78557825 273.125 440.1875 C274.07375 440.455625 275.0225 440.72375 276 441 C276 441.99 276 442.98 276 444 C233.43 444 190.86 444 147 444 C147.33 442.68 147.66 441.36 148 440 C148.77601563 439.93683594 149.55203125 439.87367188 150.3515625 439.80859375 C159.79351326 438.73820554 170.24024878 436.19509432 176.921875 428.90234375 C178.15249157 426.96593239 179.11193636 425.11132776 180 423 C180.51626953 422.01966797 180.51626953 422.01966797 181.04296875 421.01953125 C185.67086268 411.25373059 185.14968348 398.8731305 185.17700195 388.33081055 C185.18685875 386.64819122 185.18685875 386.64819122 185.19691467 384.93157959 C185.21649232 381.24995845 185.22827313 377.56837773 185.23828125 373.88671875 C185.24235678 372.62130564 185.2464323 371.35589252 185.25063133 370.05213356 C185.26928773 364.0458942 185.28387116 358.03967889 185.2922433 352.03341836 C185.30201202 345.14319205 185.32834638 338.25328727 185.36874419 331.36317414 C185.40272139 325.35853694 185.41440225 319.35405419 185.41844749 313.34931374 C185.42329681 310.81177394 185.43486307 308.27423718 185.45348549 305.73676109 C185.87477373 287.42903214 185.87477373 287.42903214 181 270 C180.55038658 268.96079155 180.55038658 268.96079155 180.09169006 267.90058899 C179.28666353 266.16545247 178.37663407 264.48014608 177.4609375 262.80078125 C177.13853088 262.2019664 176.81612427 261.60315155 176.48394775 260.9861908 C175.45873672 259.08867024 174.41741695 257.20061285 173.375 255.3125 C172.65188543 253.98261062 171.92972709 252.65220089 171.20849609 251.32128906 C169.15424554 247.53906046 167.07918675 243.76855998 165 240 C164.48501953 239.06269043 163.97003906 238.12538086 163.43945312 237.15966797 C161.02907456 232.77551097 158.59538679 228.40509556 156.14453125 224.04345703 C154.95356742 221.91709883 153.77239271 219.78555441 152.59375 217.65234375 C146.17458793 206.03683871 139.6129092 194.50614934 133 183 C132.43152344 182.01 131.86304688 181.02 131.27734375 180 C118.78812427 158.26052345 106.22813798 136.55212771 93.26269531 115.09228516 C90.41786141 110.37839758 87.58443086 105.65764725 84.75 100.9375 C84.10272949 99.86024658 83.45545898 98.78299316 82.78857422 97.6730957 C79.18819994 91.67351809 75.61568516 85.65899646 72.07666016 79.62304688 C56.26140449 51.4649346 56.26140449 51.4649346 35.69921875 26.796875 C34 25 34 25 34 23 C33.44183594 22.75765625 32.88367188 22.5153125 32.30859375 22.265625 C29.53366091 20.74434202 27.43312611 18.84613256 25.0625 16.75 C17.56452866 10.50839115 9.2252121 6.96475426 0 4 C0 2.68 0 1.36 0 0 Z " fill="#DBA399" transform="translate(359,389)"/>
<path d="M0 0 C1.56911133 0.25620117 1.56911133 0.25620117 3.16992188 0.51757812 C8.66041652 1.41910815 14.124181 2.41231872 19.578125 3.51318359 C21.95531782 3.99101852 24.3361904 4.44432676 26.71875 4.89453125 C58.97328751 11.14465071 90.52289327 22.63635842 120 37 C121.71731686 37.81928517 123.43476143 38.63830272 125.15234375 39.45703125 C154.61461531 53.67534251 182.74553159 72.00636909 207.75390625 93.11328125 C209.2097698 94.33620663 210.69602662 95.5241682 212.21484375 96.66796875 C215.28410304 99.03221007 216.8640643 100.30672791 217.625 104.1875 C217 107 217 107 215.875 108.875 C213.09616156 110.54230306 211.19882715 110.34370792 208 110 C205.46484375 108.1640625 205.46484375 108.1640625 202.9375 105.625 C201.96992312 104.69138191 200.99842411 103.76181486 200.0234375 102.8359375 C199.52424805 102.35995117 199.02505859 101.88396484 198.51074219 101.39355469 C182.46666641 86.59400968 162.82160341 74.84334128 144 64 C142.89954346 63.35901367 142.89954346 63.35901367 141.77685547 62.70507812 C121.38847484 50.86457803 100.11084445 41.1790664 77.97753906 33.08886719 C75.26803428 32.09801844 72.56728412 31.08643223 69.8671875 30.0703125 C47.56797034 21.81942225 24.39717896 16.94221625 1 13 C-0.31018349 12.76680557 -0.31018349 12.76680557 -1.64683533 12.52890015 C-8.61026328 11.31606905 -15.52844725 10.44305996 -22.57421875 9.890625 C-23.64419601 9.80653381 -24.71417328 9.72244263 -25.8165741 9.63580322 C-37.01997068 8.82496919 -48.20269431 8.69696821 -59.43139648 8.73925781 C-62.82879229 8.75005176 -66.22566607 8.73923838 -69.62304688 8.7265625 C-82.87069926 8.7176951 -95.8577439 9.32407843 -109 11 C-110.17699463 11.14598633 -111.35398926 11.29197266 -112.56665039 11.44238281 C-134.86817611 14.38536403 -156.70098718 19.20933787 -178.03076172 26.35351562 C-180.79297726 27.26032777 -183.58386849 28.06225672 -186.375 28.875 C-226.56600877 41.33068277 -265.27308515 61.97537433 -299 87 C-299.58426758 87.4326416 -300.16853516 87.8652832 -300.77050781 88.31103516 C-311.86520506 96.57648934 -322.38350862 105.52475019 -332.61328125 114.83203125 C-334.20498746 116.27785276 -335.80663226 117.71280751 -337.41796875 119.13671875 C-346.85446289 127.49304186 -355.93626957 136.29745137 -364 146 C-365.00740234 147.20849609 -365.00740234 147.20849609 -366.03515625 148.44140625 C-368.3767693 151.27859878 -370.69249388 154.13500041 -373 157 C-373.42297363 157.52335938 -373.84594727 158.04671875 -374.28173828 158.5859375 C-433.85039397 232.49969803 -465.08210008 325.31510857 -465.24023438 419.92553711 C-465.24989705 423.40047551 -465.28101155 426.87480979 -465.3125 430.34960938 C-465.38759641 446.0981899 -464.22114503 461.41241529 -462 477 C-461.8769751 477.86545441 -461.7539502 478.73090881 -461.62719727 479.62258911 C-460.86655745 484.86556135 -460.01984709 490.09091652 -459.125 495.3125 C-458.99583191 496.07471863 -458.86666382 496.83693726 -458.73358154 497.62225342 C-455.84280576 514.61542858 -451.99460327 531.05625852 -447 547.5625 C-446.6798291 548.62162598 -446.3596582 549.68075195 -446.02978516 550.77197266 C-444.06699071 557.07649615 -441.77973799 563.14490295 -439.18310547 569.21508789 C-438.15420341 571.63702056 -437.18559114 574.06684614 -436.25390625 576.52734375 C-422.20383111 613.36255998 -402.7364552 649.213781 -378.38818359 680.23095703 C-376.99327952 682.0085643 -375.61461297 683.79783155 -374.23828125 685.58984375 C-366.23021077 695.96344955 -358.00070044 706.3587383 -348.54296875 715.45703125 C-346.9170203 717.0829797 -345.47074922 718.79537814 -344 720.5625 C-303.45415995 767.44362756 -242.48263089 803.21958575 -185 824 C-184.22962402 824.2789209 -183.45924805 824.5578418 -182.66552734 824.84521484 C-177.48310989 826.69599667 -172.26021728 828.38487324 -167 830 C-165.6687207 830.41330566 -165.6687207 830.41330566 -164.31054688 830.83496094 C-146.46150955 836.306795 -128.41083568 840.06224881 -110 843 C-108.88399414 843.18079102 -107.76798828 843.36158203 -106.61816406 843.54785156 C-55.43548313 851.39451066 -1.80874421 846.30311141 48 833 C49.89298828 832.49919922 49.89298828 832.49919922 51.82421875 831.98828125 C107.81599311 816.62358193 161.84133056 786.99192768 205.578125 748.90625 C206.16295654 748.39916504 206.74778809 747.89208008 207.3503418 747.36962891 C208.45886558 746.40194281 209.55986742 745.42554307 210.65161133 744.43896484 C213.68987431 741.77685839 215.94374818 740.37213319 220 740 C220.85546875 742.1484375 220.85546875 742.1484375 221 745 C219.15352549 747.16611632 217.46942261 748.81751795 215.3125 750.625 C214.09469109 751.69099399 212.87725051 752.75740889 211.66015625 753.82421875 C211.04156738 754.35708496 210.42297852 754.88995117 209.78564453 755.43896484 C208.1728445 756.84889694 206.60795402 758.29062071 205.05859375 759.76953125 C196.88349228 767.53530914 188.052507 774.29269188 179 781 C177.89664307 781.82467773 177.89664307 781.82467773 176.77099609 782.66601562 C165.89034794 790.78298392 154.72189569 798.15642636 143 805 C142.34354492 805.38607422 141.68708984 805.77214844 141.01074219 806.16992188 C136.39063793 808.87494486 131.71832628 811.47044701 127 814 C126.22301758 814.41717285 125.44603516 814.8343457 124.64550781 815.26416016 C91.70754478 832.75718696 56.41823846 844.23973778 20 852 C18.63294922 852.29148926 18.63294922 852.29148926 17.23828125 852.58886719 C-7.44256625 857.69064411 -32.59943878 859.28010745 -57.75 859.25 C-58.97227295 859.24897278 -58.97227295 859.24897278 -60.21923828 859.2479248 C-96.42298072 859.14705318 -133.42029484 853.87216512 -168 843 C-169.07266113 842.66516602 -170.14532227 842.33033203 -171.25048828 841.98535156 C-225.128999 825.00341836 -274.66408602 798.35436616 -318 762 C-319.00160156 761.17242188 -320.00320313 760.34484375 -321.03515625 759.4921875 C-337.37108512 745.92404032 -353.27042745 731.22585847 -367 715 C-367.98267929 713.87871996 -368.96724981 712.75909611 -369.953125 711.640625 C-376.97113961 703.65933313 -383.65652113 695.52575463 -390 687 C-390.44053711 686.41250977 -390.88107422 685.82501953 -391.33496094 685.21972656 C-416.2039355 652.01991027 -436.25901245 615.77629268 -451 577 C-451.36222656 576.0615625 -451.72445312 575.123125 -452.09765625 574.15625 C-461.54548122 549.61282277 -467.48708935 524.55740243 -472.296875 498.76513672 C-472.70583605 496.57520712 -473.11987215 494.38619036 -473.546875 492.19970703 C-486.70131429 424.82573077 -480.69517263 345.2016745 -455.79980469 281.06762695 C-454.87349527 278.67296442 -453.99935068 276.26176742 -453.125 273.84765625 C-445.11430645 251.93946469 -436.01815015 230.85675075 -424.46435547 210.57275391 C-423.04620022 208.08117003 -421.64866355 205.57895575 -420.25390625 203.07421875 C-405.86359778 177.46682258 -388.10824105 154.06696406 -368.25390625 132.47265625 C-366.35427522 130.38865895 -364.51299893 128.27343731 -362.6875 126.125 C-355.73570177 118.13537407 -348.07620857 110.5706081 -340 103.72265625 C-337.56610869 101.62627721 -335.22865575 99.4360262 -332.875 97.25 C-310.11598773 76.55147444 -283.83615223 59.84197317 -257 45 C-256.20335937 44.55769043 -255.40671875 44.11538086 -254.5859375 43.65966797 C-233.93542415 32.26821631 -212.29127456 23.61507881 -190 16 C-189.16549316 15.71141113 -188.33098633 15.42282227 -187.47119141 15.12548828 C-164.64617348 7.29342063 -140.794848 2.74201419 -117 -1 C-115.99098633 -1.16661133 -114.98197266 -1.33322266 -113.94238281 -1.50488281 C-76.98661626 -7.38227341 -36.82538014 -6.30855653 0 0 Z " fill="#DAA299" transform="translate(685,183)"/>
<path d="M0 0 C1.32 0 2.64 0 4 0 C4 26.4 4 52.8 4 80 C2.68 80 1.36 80 0 80 C-0.20753906 79.24976563 -0.41507813 78.49953125 -0.62890625 77.7265625 C-2.93433104 70.0675362 -5.93780053 64.18363911 -11 58 C-11.82564453 56.95199219 -11.82564453 56.95199219 -12.66796875 55.8828125 C-23.67605764 43.39239817 -42.13128232 38.79078349 -58 37 C-63.95669185 36.62427154 -69.92820729 36.62841039 -75.89453125 36.5859375 C-77.57989909 36.56718163 -79.26525798 36.54760511 -80.9506073 36.5272522 C-85.34146798 36.47639095 -89.73235895 36.43652215 -94.12335205 36.39910889 C-98.62202156 36.35877718 -103.12057011 36.30781946 -107.61914062 36.2578125 C-116.41267712 36.16159961 -125.20627457 36.07702393 -134 36 C-133.99723462 37.01459431 -133.99723462 37.01459431 -133.99441338 38.04968548 C-133.94999747 54.60557714 -133.91702934 71.16144961 -133.89637566 87.7173872 C-133.88611896 95.72412969 -133.8721677 103.73083209 -133.84912109 111.73754883 C-133.82901356 118.72659708 -133.81624299 125.71561628 -133.81182301 132.70469266 C-133.80924459 136.39590485 -133.80330558 140.087034 -133.78853989 143.77821922 C-133.70677486 165.05878528 -134.59932333 185.82632881 -138.3125 206.8125 C-138.6384314 208.66911255 -138.6384314 208.66911255 -138.97094727 210.56323242 C-140.63571983 219.69938428 -142.79110924 228.28603616 -146 237 C-146.45705864 238.31594525 -146.91274708 239.63236705 -147.3671875 240.94921875 C-154.28930641 260.60300738 -164.33492887 278.23993539 -178 294 C-178.71929688 294.85335938 -179.43859375 295.70671875 -180.1796875 296.5859375 C-185.57712885 302.8285298 -191.45060342 307.99567732 -198 313 C-199.52173828 314.20462891 -199.52173828 314.20462891 -201.07421875 315.43359375 C-210.88249971 322.98263072 -221.71153652 328.03700901 -233 333 C-234.14210938 333.515625 -235.28421875 334.03125 -236.4609375 334.5625 C-265.91827158 346.933034 -303.04434525 347.58119683 -334.0625 341.3125 C-335.27123779 341.06878662 -336.47997559 340.82507324 -337.7253418 340.57397461 C-346.07680071 338.72761717 -354.01261109 336.03736079 -362 333 C-362.99209473 332.62439941 -363.98418945 332.24879883 -365.00634766 331.86181641 C-376.30380077 327.50037367 -387.91332609 321.72444927 -398 315 C-398 314.01 -398 313.02 -398 312 C-393.52306523 312.58307384 -389.88183445 313.76583739 -385.75 315.5625 C-369.22365394 322.43173026 -351.76825813 327.71241072 -334 330 C-333.09636719 330.12890625 -332.19273437 330.2578125 -331.26171875 330.390625 C-328.50246829 330.71675725 -325.77633268 330.87883835 -323 331 C-322.32678711 331.03786621 -321.65357422 331.07573242 -320.95996094 331.11474609 C-297.90566633 332.2847392 -274.60099021 328.62254283 -254 318 C-253.36610352 317.68691895 -252.73220703 317.37383789 -252.07910156 317.05126953 C-223.28748469 302.71617088 -205.81889485 274.72228737 -195.66845703 245.07324219 C-193.75475438 239.13782842 -192.3772918 233.07737726 -191 227 C-190.72285156 225.8965625 -190.44570313 224.793125 -190.16015625 223.65625 C-184.85117233 201.46945152 -185.66423508 178.31080165 -185.59528303 155.65296221 C-185.57943834 151.1153155 -185.55271875 146.57773169 -185.5272522 142.04013062 C-185.48083601 133.48438966 -185.44391461 124.92863636 -185.41057932 116.37283552 C-185.37209197 106.61672796 -185.32275348 96.86068415 -185.27259517 87.10463071 C-185.16982943 67.06980114 -185.08039269 47.03493104 -185 27 C-184.31715124 26.99668985 -183.63430248 26.99337971 -182.93076134 26.98996925 C-166.26040969 26.90849472 -149.5901542 26.81632386 -132.9199276 26.71247292 C-124.85809572 26.66250372 -116.79627323 26.61606001 -108.734375 26.578125 C-101.701759 26.54502407 -94.6692193 26.50509523 -87.63668787 26.45720994 C-83.91835259 26.4321234 -80.20006675 26.41029117 -76.48167038 26.39665604 C-72.31498129 26.38124839 -68.14853035 26.35058622 -63.98193359 26.31884766 C-62.76991776 26.31668747 -61.55790192 26.31452728 -60.30915833 26.31230164 C-40.23729915 26.11832625 -19.71577595 22.24118134 -4.7109375 7.93359375 C-2.48003013 5.41236281 -1.17847525 3.14260067 0 0 Z " fill="#9F8379" transform="translate(845,610)"/>
<path d="M0 0 C3.9637458 0.38860253 4.64114731 1.34902327 7.1875 4.3125 C8.58447266 6.64892578 8.58447266 6.64892578 9.8515625 9.2578125 C10.32907959 10.23959473 10.80659668 11.22137695 11.29858398 12.23291016 C11.79817627 13.2904248 12.29776855 14.34793945 12.8125 15.4375 C13.59765991 17.08758057 13.59765991 17.08758057 14.39868164 18.77099609 C19.9817752 30.70446775 24.70496493 42.93018185 29.1875 55.3125 C29.45643066 56.0461377 29.72536133 56.77977539 30.00244141 57.53564453 C33.6081091 67.44810727 36.18995408 77.61765043 38.78125 87.83203125 C39.85953861 92.07959459 41.03700658 96.28876074 42.25 100.5 C46.45649539 116.27435771 48.84228818 132.63970821 50.9375 148.8125 C51.05295166 149.68060303 51.16840332 150.54870605 51.28735352 151.44311523 C55.5600134 186.61238615 55.22183134 224.30018475 50.1875 259.3125 C49.99168952 260.73137668 49.79639891 262.15032517 49.6015625 263.56933594 C42.70089728 313.22652554 28.63535673 361.83341103 5.21630859 406.34472656 C4.08995333 408.4990748 2.9919251 410.66670242 1.89453125 412.8359375 C-10.83098094 437.77937698 -26.92091437 460.4088122 -45.0625 481.6875 C-45.57047119 482.28336914 -46.07844238 482.87923828 -46.60180664 483.49316406 C-47.99256969 485.11138943 -49.39873144 486.71437265 -50.8125 488.3125 C-51.50859375 489.10914063 -52.2046875 489.90578125 -52.921875 490.7265625 C-54.8125 492.3125 -54.8125 492.3125 -58.8125 492.3125 C-58.39210921 487.31452056 -55.75780365 484.41484525 -52.625 480.75 C-42.36800647 468.33972538 -32.9976777 455.0329168 -24.87451172 441.12451172 C-24.10984977 439.81984022 -23.33703494 438.51993476 -22.55908203 437.22314453 C-8.16702987 413.21241274 3.56194995 388.09967883 12.95849609 361.75 C14.14241702 358.43859621 15.35918831 355.14094168 16.58203125 351.84375 C29.49991559 316.4739353 36.71336459 278.75595941 40.1875 241.3125 C40.2810376 240.30952881 40.3745752 239.30655762 40.47094727 238.27319336 C44.38458486 190.76353516 40.27272288 141.4432535 28.1875 95.3125 C27.86652344 94.03761719 27.54554687 92.76273437 27.21484375 91.44921875 C19.9784888 63.54140158 10.18925762 35.61983409 -2.8515625 9.8984375 C-3.97536905 6.87421012 -4.0602142 4.51443535 -3.8125 1.3125 C-2.8125 0.3125 -2.8125 0.3125 0 0 Z " fill="#D9A199" transform="translate(997.8125,397.6875)"/>
<path d="M0 0 C1.32 0 2.64 0 4 0 C4.29390625 1.4540625 4.29390625 1.4540625 4.59375 2.9375 C7.86395269 18.01117947 13.51605966 31.32785544 25 42 C25.68578125 42.64324219 26.3715625 43.28648437 27.078125 43.94921875 C37.01919745 52.43594912 49.38263809 55.81401329 62 58 C62 59.32 62 60.64 62 62 C61.43192627 62.1451001 60.86385254 62.2902002 60.27856445 62.43969727 C41.65411631 67.27230197 24.98388264 72.70885882 14.59765625 90.05078125 C9.74385477 99.01073263 6.97837274 108.02771466 5 118 C2.525 118.495 2.525 118.495 0 119 C-0.20979492 118.1478894 -0.20979492 118.1478894 -0.42382812 117.27856445 C-4.74306957 100.10402441 -10.39802524 84.03507297 -26 74 C-36.51063367 67.75455101 -47.18491617 64.73334029 -59 62 C-58.67 60.68 -58.34 59.36 -58 58 C-56.79085937 57.72027344 -55.58171875 57.44054687 -54.3359375 57.15234375 C-35.94887541 52.72429281 -20.5121887 46.31351641 -9.92578125 29.765625 C-4.99859449 20.79980172 -1.88710223 10.02502285 0 0 Z " fill="#DCA39A" transform="translate(898,320)"/>
<path d="M0 0 C45.87 0 91.74 0 139 0 C139 32.34 139 64.68 139 98 C137.68 97.67 136.36 97.34 135 97 C134.88785156 95.45505859 134.88785156 95.45505859 134.7734375 93.87890625 C132.88549356 72.03417763 124.55897646 54.55897646 109 39 C108.37738281 38.37738281 107.75476563 37.75476563 107.11328125 37.11328125 C92.68520555 23.65312677 72.11849358 15.00834781 53 11 C52.26281738 10.83161621 51.52563477 10.66323242 50.76611328 10.48974609 C33.03913638 6.47588571 15.09583922 5.78414241 -3 5 C-3 4.67 -3 4.34 -3 4 C-1.02 4 0.96 4 3 4 C3 3.34 3 2.68 3 2 C2.01 1.34 1.02 0.68 0 0 Z " fill="#9F8379" transform="translate(768,468)"/>
<path d="M0 0 C5.1421373 3.05484266 9.34337405 7.87462319 11.5625 13.4375 C12.6661096 22.01080405 11.7972541 29.40534912 6.5625 36.4375 C1.74520018 41.0901996 -3.96305832 43.70787206 -10.6875 43.875 C-16.61022875 43.73151532 -20.89679869 42.28166655 -25.4375 38.4375 C-31.19330554 31.4093585 -32.92467225 26.40410283 -32.4375 17.4375 C-31.73396012 10.96723982 -29.20870915 6.82035491 -24.4375 2.4375 C-17.57244822 -3.0265208 -8.047958 -3.57515057 0 0 Z " fill="#DCA49B" transform="translate(971.4375,287.5625)"/>
<path d="M0 0 C47.52 0 95.04 0 144 0 C144 32.67 144 65.34 144 99 C143.67 99 143.34 99 143 99 C143 66.66 143 34.32 143 1 C98.45 1.33 53.9 1.66 8 2 C7.67 2.99 7.34 3.98 7 5 C12.28 5.33 17.56 5.66 23 6 C23 6.33 23 6.66 23 7 C15.41 7 7.82 7 0 7 C0 4.69 0 2.38 0 0 Z " fill="#B59F95" transform="translate(764,467)"/>
<path d="M0 0 C0.33 0 0.66 0 1 0 C1 32.34 1 64.68 1 98 C0.01 98 -0.98 98 -2 98 C-2 94.7 -2 91.4 -2 88 C-1.34 88 -0.68 88 0 88 C0 58.96 0 29.92 0 0 Z " fill="#95776B" transform="translate(906,468)"/>
<path d="M0 0 C0.33 0.66 0.66 1.32 1 2 C0.34 1.67 -0.32 1.34 -1 1 C-0.67 0.67 -0.34 0.34 0 0 Z M-3 2 C-2.34 2.33 -1.68 2.66 -1 3 C-7.3311237 10.10032564 -13.69658097 16.86873464 -21 23 C-21.66 22.67 -22.32 22.34 -23 22 C-16.4 15.4 -9.8 8.8 -3 2 Z " fill="#F8ECE9" transform="translate(350,299)"/>
<path d="M0 0 C2.64 0.33 5.28 0.66 8 1 C7.67 1.99 7.34 2.98 7 4 C12.28 4.33 17.56 4.66 23 5 C23 5.33 23 5.66 23 6 C15.41 6 7.82 6 0 6 C0 4.02 0 2.04 0 0 Z " fill="#B0988F" transform="translate(764,468)"/>
<path d="M0 0 C3.9492568 0.55105909 7.34920174 1.38935371 11 3 C10.34 4.32 9.68 5.64 9 7 C5.59687262 5.94124926 2.98646769 4.99097846 0 3 C0 2.01 0 1.02 0 0 Z " fill="#A58B82" transform="translate(447,922)"/>
<path d="M0 0 C0.33 0 0.66 0 1 0 C2.0070238 5.03511899 1.97387813 8.23947038 0 13 C-0.33 13 -0.66 13 -1 13 C-1.07654536 8.48382401 -1.10228696 4.40914783 0 0 Z " fill="#E2D8D3" transform="translate(708,802)"/>
</svg>
